<?xml version="1.0"?>
<svg xmlns:rdf="http://www.w3.org/1999/02/22-rdf-syntax-ns#" xmlns="http://www.w3.org/2000/svg" xmlns:cc="http://web.resource.org/cc/" xmlns:xlink="http://www.w3.org/1999/xlink" xmlns:dc="http://purl.org/dc/elements/1.1/" xmlns:svg="http://www.w3.org/2000/svg" id="svg2" viewBox="0 0 744.09 1052.4">
  <defs id="defs4">
    <linearGradient id="linearGradient4427" y2="1199.5" gradientUnits="userSpaceOnUse" y1="65.219" x2="435.71" x1="494.29">
      <stop id="stop4423" stop-color="#00a8f0" offset="0"/>
      <stop id="stop4425" stop-color="#00a8f0" stop-opacity="0" offset="1"/>
    </linearGradient>
    <filter id="filter4481">
      <feGaussianBlur id="feGaussianBlur4483" stdDeviation="4.1341802"/>
    </filter>
  </defs>
  <g id="layer1">
    <rect id="rect4418" ry="2.3841" height="1061.4" width="745.71" y="-.98517" x="1.7794" fill="url(#linearGradient4427)"/>
    <path id="path4401" fill="#fff" d="m186.61 30.543c-10.55 0-19.37 6.522-21.54 15.222-22.63 0.27-42.26 5.18-52.75 12.367-3.18-2.189-7.06-3.484-11.27-3.484-10.686 0-19.354 8.335-19.354 18.603 0 1.232 0.127 2.435 0.365 3.599-15.88 5.766-26.035 14.569-26.035 24.43 0 17.35 31.467 31.44 70.244 31.44 1.14 0 2.27-0.01 3.4-0.04-0.45 2.19-0.69 4.49-0.69 6.86 0 14.75 9.28 26.72 20.71 26.72 5.83 0 11.08-3.11 14.85-8.11 4.19 3.75 9.62 6.01 15.54 6.01 9.58 0 17.86-5.91 21.74-14.45 9.32 2.21 19.74 3.45 30.72 3.45 39.77 0 72.05-16.2 72.05-36.16 0-14.29-16.57-26.662-40.58-32.527 3.49-3.669 5.46-7.848 5.46-12.276 0-14.607-21.49-26.455-47.96-26.455-4.56 0-8.96 0.352-13.14 1.008-1.73-9.189-10.81-16.207-21.76-16.207z"/>
    <path id="path4429" fill="#fff" d="m540.59 104.51c-10.55 0-19.37 6.52-21.54 15.22-22.63 0.27-42.26 5.18-52.75 12.36-3.18-2.18-7.07-3.48-11.27-3.48-10.69 0-19.36 8.34-19.36 18.6 0 1.24 0.13 2.44 0.37 3.6-15.88 5.77-26.04 14.57-26.04 24.43 0 17.35 31.47 31.44 70.25 31.44 1.14 0 2.27-0.01 3.4-0.03-0.45 2.18-0.69 4.48-0.69 6.85 0 14.75 9.28 26.72 20.71 26.72 5.82 0 11.08-3.11 14.85-8.1 4.19 3.74 9.61 6 15.54 6 9.58 0 17.86-5.91 21.74-14.45 9.32 2.21 19.73 3.45 30.72 3.45 39.77 0 72.05-16.2 72.05-36.15 0-14.3-16.57-26.67-40.59-32.53 3.49-3.67 5.47-7.85 5.47-12.28 0-14.61-21.49-26.46-47.96-26.46-4.56 0-8.96 0.36-13.14 1.01-1.73-9.19-10.81-16.2-21.76-16.2z"/>
    <path id="path4431" fill="#fff" d="m182.86 272.39c8.5 3.05 13.4 11.74 12.21 20.56 18.15 6.81 32.32 17.11 38.34 26.91 3.3-1.14 6.87-1.23 10.26-0.02 8.61 3.1 12.78 13.45 9.31 23.12-0.42 1.15-0.93 2.25-1.51 3.28 10.85 10.02 16.06 21.24 12.73 30.52-5.87 16.34-35.99 20.48-67.25 9.26-0.91-0.33-1.82-0.67-2.72-1.02-0.38 2.19-0.96 4.42-1.77 6.65-4.98 13.89-16.51 22.46-25.72 19.15-4.7-1.68-7.88-6.13-9.23-11.92-4.65 2.31-9.78 2.87-14.56 1.15-7.72-2.77-12.39-10.73-12.63-19.9-8.26-0.61-17.07-2.46-25.93-5.64-32.054-11.52-52.593-36.1-45.846-54.88 4.833-13.46 22.364-20.3 43.706-18.87-1.57-4.46-1.75-8.97-0.26-13.14 4.94-13.74 26.26-18.67 47.6-11.01 3.68 1.32 7.1 2.93 10.25 4.75 4.5-8.14 14.19-12.12 23.02-8.95z"/>
    <path id="path4433" fill="#fff" d="m132.73 581.65c-5.76 0-10.58 3.64-11.76 8.49-12.36 0.15-23.077 2.89-28.802 6.9-1.734-1.22-3.857-1.94-6.153-1.94-5.835 0-10.567 4.65-10.567 10.37 0 0.69 0.069 1.36 0.199 2.01-8.67 3.22-14.214 8.13-14.214 13.63 0 9.68 17.179 17.54 38.35 17.54 0.617 0 1.237 0 1.857-0.02-0.25 1.22-0.38 2.5-0.38 3.83 0 8.23 5.07 14.9 11.31 14.9 3.18 0 6.05-1.73 8.11-4.52 2.29 2.09 5.25 3.35 8.48 3.35 5.23 0 9.75-3.29 11.87-8.06 5.09 1.23 10.78 1.92 16.77 1.92 21.72 0 39.34-9.03 39.34-20.17 0-7.97-9.05-14.87-22.16-18.14 1.91-2.05 2.99-4.38 2.99-6.85 0-8.15-11.74-14.76-26.19-14.76-2.49 0-4.89 0.19-7.17 0.56-0.95-5.13-5.91-9.04-11.88-9.04z"/>
    <path id="path4435" fill="#fff" d="m540.05 364.45c-10.38 1.84-17.93 9.81-18.54 18.75-22.24 4.23-40.71 12.49-49.78 21.4-3.51-1.6-7.56-2.19-11.7-1.46-10.52 1.87-17.6 11.6-15.81 21.71 0.22 1.21 0.55 2.37 0.99 3.48-14.62 8.45-23.08 18.89-21.36 28.6 3.04 17.09 36.48 25.45 74.66 18.67 1.12-0.2 2.24-0.41 3.34-0.63-0.06 2.23 0.11 4.54 0.52 6.87 2.58 14.53 13.81 24.69 25.07 22.69 5.73-1.02 10.36-5 13.2-10.58 4.78 2.96 10.52 4.23 16.35 3.2 9.43-1.68 16.55-8.94 18.88-18.03 9.56 0.54 20.03-0.06 30.85-1.98 39.16-6.96 68.1-28.54 64.61-48.19-2.5-14.08-20.97-23.36-45.64-24.94 2.79-4.22 4.01-8.68 3.23-13.04-2.55-14.38-25.78-22.29-51.85-17.66-4.48 0.8-6.76 13.17-10.76 14.54-3.31-8.74-15.48-25.32-26.26-23.4z"/>
    <path id="path4437" fill="#fff" d="m587.73 641.65c-5.76 0-10.58 3.64-11.76 8.49-12.36 0.15-23.08 2.89-28.8 6.9-1.74-1.22-3.86-1.94-6.15-1.94-5.84 0-10.57 4.65-10.57 10.37 0 0.69 0.07 1.36 0.2 2.01-8.67 3.22-14.22 8.13-14.22 13.63 0 9.68 17.18 17.54 38.35 17.54 0.62 0 1.24 0 1.86-0.02-0.25 1.22-0.38 2.5-0.38 3.83 0 8.23 5.07 14.9 11.31 14.9 3.18 0 6.05-1.73 8.11-4.52 2.29 2.09 5.25 3.35 8.48 3.35 5.23 0 9.75-3.29 11.87-8.06 5.09 1.23 10.78 1.92 16.77 1.92 21.72 0 39.34-9.03 39.34-20.17 0-7.97-9.05-14.87-22.16-18.14 1.91-2.05 2.99-4.38 2.99-6.85 0-8.15-11.74-14.76-26.19-14.76-2.49 0-4.89 0.19-7.17 0.56-0.95-5.13-5.91-9.04-11.88-9.04z"/>
    <path id="path4439" fill="#fff" d="m416.1 724.55c-5.65 1.11-9.68 5.6-9.91 10.59-12.1 2.53-22.09 7.28-26.93 12.31-1.94-0.86-4.16-1.16-6.42-0.72-5.72 1.12-9.47 6.59-8.37 12.22 0.13 0.67 0.33 1.31 0.58 1.93-7.89 4.82-12.39 10.71-11.33 16.1 1.86 9.5 20.23 13.91 41.01 9.84 0.61-0.12 1.22-0.24 1.82-0.37-0.01 1.24 0.11 2.53 0.36 3.82 1.58 8.08 7.84 13.66 13.97 12.46 3.12-0.61 5.6-2.87 7.08-6 2.65 1.61 5.8 2.28 8.97 1.66 5.13-1.01 8.94-5.11 10.1-10.2 5.23 0.23 10.94-0.18 16.83-1.33 21.31-4.18 36.86-16.43 34.72-27.36-1.53-7.83-11.73-12.86-25.23-13.55 1.48-2.37 2.09-4.87 1.61-7.29-1.57-8-14.35-12.23-28.53-9.45-2.44 0.48-4.77 1.13-6.93 1.93-1.92-4.85-7.54-7.74-13.4-6.59z"/>
    <path id="path4441" fill="#fff" d="m184.87 765.93c-5.76 0-10.57 3.64-11.76 8.5-12.36 0.15-23.07 2.89-28.8 6.9-1.73-1.23-3.86-1.95-6.15-1.95-5.84 0-10.57 4.65-10.57 10.38 0 0.69 0.07 1.36 0.2 2.01-8.67 3.22-14.21 8.13-14.21 13.63 0 9.68 17.18 17.54 38.35 17.54 0.62 0 1.24-0.01 1.85-0.02-0.24 1.22-0.38 2.5-0.38 3.82 0 8.23 5.07 14.91 11.31 14.91 3.18 0 6.05-1.74 8.11-4.52 2.29 2.09 5.25 3.35 8.48 3.35 5.23 0 9.75-3.3 11.87-8.07 5.09 1.24 10.78 1.93 16.78 1.93 21.71 0 39.33-9.04 39.33-20.17 0-7.98-9.04-14.88-22.16-18.15 1.91-2.05 2.99-4.38 2.99-6.85 0-8.15-11.73-14.76-26.19-14.76-2.48 0-4.89 0.2-7.17 0.57-0.94-5.13-5.9-9.05-11.88-9.05z"/>
    <path id="path4443" fill="#fff" d="m367.57 562.46c-5.56-1.52-11.16 0.73-13.58 5.1-11.96-3.11-23.03-3.29-29.6-0.92-1.36-1.64-3.21-2.89-5.43-3.5-5.63-1.53-11.42 1.71-12.92 7.24-0.18 0.66-0.29 1.32-0.34 1.98-9.21 0.83-15.85 4.11-17.3 9.41-2.55 9.34 11.96 21.44 32.38 27.02 0.6 0.16 1.2 0.32 1.8 0.46-0.56 1.12-1.02 2.32-1.37 3.6-2.17 7.93 0.97 15.71 6.99 17.35 3.07 0.84 6.29-0.08 9.01-2.23 1.66 2.62 4.18 4.62 7.3 5.47 5.05 1.37 10.28-0.62 13.58-4.66 4.58 2.53 9.88 4.69 15.67 6.27 20.95 5.71 40.33 1.63 43.26-9.11 2.1-7.69-4.81-16.73-16.6-23.34 2.37-1.47 4.03-3.43 4.68-5.82 2.14-7.86-7.44-17.32-21.38-21.13-2.4-0.65-4.77-1.09-7.07-1.34 0.44-5.2-3.32-10.28-9.08-11.85z"/>
    <path id="path4445" opacity=".28" fill="#fff" d="m564.92 846.18c-5.65 1.1-9.67 5.6-9.9 10.59-12.1 2.52-22.09 7.27-26.94 12.31-1.94-0.87-4.16-1.17-6.41-0.73-5.73 1.13-9.48 6.6-8.38 12.22 0.14 0.67 0.33 1.32 0.59 1.93-7.89 4.83-12.39 10.71-11.33 16.11 1.86 9.5 20.23 13.91 41 9.84 0.61-0.12 1.22-0.25 1.82-0.38 0 1.25 0.11 2.53 0.37 3.83 1.58 8.07 7.84 13.65 13.96 12.45 3.12-0.61 5.61-2.86 7.09-5.99 2.65 1.61 5.79 2.28 8.97 1.65 5.13-1 8.93-5.1 10.1-10.19 5.23 0.23 10.94-0.18 16.83-1.34 21.3-4.17 36.86-16.43 34.72-27.35-1.54-7.83-11.74-12.86-25.23-13.55 1.47-2.38 2.08-4.87 1.61-7.3-1.57-7.99-14.35-12.23-28.54-9.45-2.44 0.48-4.76 1.14-6.93 1.93-1.91-4.84-7.53-7.73-13.4-6.58z"/>
    <path id="path4447" opacity=".28" fill="#fff" d="m294.92 873.32c-5.65 1.11-9.67 5.6-9.9 10.59-12.1 2.53-22.09 7.28-26.94 12.31-1.94-0.86-4.16-1.16-6.41-0.72-5.73 1.12-9.48 6.59-8.38 12.21 0.14 0.68 0.33 1.32 0.59 1.94-7.89 4.82-12.39 10.7-11.33 16.1 1.86 9.5 20.23 13.91 41 9.84 0.61-0.12 1.22-0.24 1.82-0.37 0 1.24 0.11 2.53 0.37 3.82 1.58 8.08 7.84 13.66 13.96 12.46 3.12-0.62 5.61-2.87 7.09-6 2.65 1.61 5.79 2.28 8.97 1.66 5.13-1.01 8.93-5.11 10.1-10.2 5.23 0.23 10.94-0.18 16.83-1.33 21.3-4.18 36.86-16.43 34.72-27.36-1.54-7.83-11.74-12.86-25.23-13.55 1.47-2.37 2.08-4.87 1.61-7.29-1.57-8-14.35-12.23-28.54-9.45-2.44 0.47-4.76 1.13-6.93 1.93-1.91-4.85-7.53-7.74-13.4-6.59z"/>
    <path id="path4449" opacity=".28" fill="#fff" d="m100.64 857.6c-5.654 1.11-9.679 5.61-9.91 10.6-12.095 2.52-22.087 7.27-26.935 12.31-1.936-0.87-4.158-1.17-6.411-0.73-5.726 1.12-9.476 6.6-8.375 12.22 0.132 0.67 0.329 1.32 0.582 1.93-7.89 4.83-12.386 10.71-11.329 16.11 1.862 9.5 20.231 13.91 41.007 9.84 0.61-0.12 1.216-0.25 1.817-0.38-0.006 1.25 0.112 2.53 0.366 3.83 1.582 8.07 7.838 13.65 13.964 12.45 3.12-0.61 5.604-2.86 7.084-5.99 2.65 1.61 5.8 2.27 8.97 1.65 5.13-1 8.94-5.11 10.1-10.19 5.23 0.23 10.94-0.19 16.83-1.34 21.31-4.17 36.86-16.43 34.72-27.35-1.53-7.83-11.73-12.86-25.23-13.55 1.48-2.38 2.09-4.87 1.61-7.3-1.56-8-14.35-12.23-28.53-9.45-2.44 0.48-4.77 1.14-6.93 1.93-1.92-4.85-7.54-7.74-13.4-6.59z"/>
    <path id="path4451" opacity=".28" d="m408.33 235.04c-10.61 2.42-18.16 12.23-18.6 23.12-22.7 5.5-41.45 15.86-50.55 26.85-3.64-1.89-7.81-2.55-12.04-1.58-10.74 2.44-17.78 14.38-15.71 26.65 0.24 1.47 0.61 2.88 1.09 4.21-14.81 10.53-23.25 23.36-21.27 35.14 3.5 20.73 37.98 30.35 76.97 21.47 1.15-0.27 2.28-0.54 3.41-0.82-0.01 2.71 0.21 5.51 0.69 8.34 2.97 17.62 14.71 29.79 26.21 27.17 5.85-1.33 10.51-6.25 13.29-13.08 4.98 3.51 10.89 4.97 16.84 3.61 9.64-2.19 16.77-11.14 18.96-22.24 9.82 0.51 20.54-0.39 31.59-2.91 39.99-9.11 69.19-35.84 65.17-59.68-2.88-17.07-22.03-28.05-47.36-29.56 2.77-5.18 3.92-10.62 3.02-15.91-2.94-17.45-26.93-26.68-53.55-20.61-4.59 1.04-8.94 2.47-13.01 4.21-3.59-10.58-14.14-16.88-25.15-14.38z" transform="matrix(.74106 0 0 .70003 75.343 121.77)" filter="url(#filter4481)" fill="#fff"/>
    <path id="path4485" opacity=".28" d="m261.9 385.76c-10.61 2.41-18.16 12.22-18.6 23.11-22.7 5.51-41.45 15.87-50.55 26.85-3.64-1.89-7.81-2.54-12.03-1.58-10.75 2.45-17.79 14.39-15.72 26.65 0.24 1.47 0.61 2.88 1.09 4.22-14.81 10.52-23.25 23.36-21.27 35.13 3.5 20.73 37.98 30.35 76.97 21.47 1.15-0.26 2.29-0.53 3.41-0.82-0.01 2.72 0.21 5.52 0.69 8.35 2.97 17.61 14.71 29.78 26.21 27.16 5.86-1.33 10.52-6.25 13.3-13.07 4.97 3.51 10.88 4.97 16.84 3.61 9.63-2.19 16.77-11.15 18.95-22.24 9.82 0.5 20.54-0.4 31.59-2.92 39.99-9.1 69.19-35.84 65.17-59.67-2.88-17.08-22.03-28.06-47.36-29.56 2.77-5.18 3.92-10.63 3.03-15.92-2.95-17.44-26.94-26.67-53.56-20.61-4.59 1.04-8.94 2.47-13.01 4.21-3.59-10.58-14.14-16.88-25.15-14.37z" transform="matrix(.68477 0 0 .60005 4.1343 205.49)" filter="url(#filter4481)" fill="#fff"/>
    <path id="path4487" opacity=".28" d="m408.33 235.04c-10.61 2.42-18.16 12.23-18.6 23.12-22.7 5.5-41.45 15.86-50.55 26.85-3.64-1.89-7.81-2.55-12.04-1.58-10.74 2.44-17.78 14.38-15.71 26.65 0.24 1.47 0.61 2.88 1.09 4.21-14.81 10.53-23.25 23.36-21.27 35.14 3.5 20.73 37.98 30.35 76.97 21.47 1.15-0.27 2.28-0.54 3.41-0.82-0.01 2.71 0.21 5.51 0.69 8.34 2.97 17.62 14.71 29.79 26.21 27.17 5.85-1.33 10.51-6.25 13.29-13.08 4.98 3.51 10.89 4.97 16.84 3.61 9.64-2.19 16.77-11.14 18.96-22.24 9.82 0.51 20.54-0.39 31.59-2.91 39.99-9.11 69.19-35.84 65.17-59.68-2.88-17.07-22.03-28.05-47.36-29.56 2.77-5.18 3.92-10.62 3.02-15.91-2.94-17.45-26.93-26.68-53.55-20.61-4.59 1.04-8.94 2.47-13.01 4.21-3.59-10.58-14.14-16.88-25.15-14.38z" transform="matrix(.74106 0 0 .70003 296.06 -187.52)" filter="url(#filter4481)" fill="#fff"/>
    <path id="path4489" opacity=".28" d="m261.9 385.76c-10.61 2.41-18.16 12.22-18.6 23.11-22.7 5.51-41.45 15.87-50.55 26.85-3.64-1.89-7.81-2.54-12.03-1.58-10.75 2.45-17.79 14.39-15.72 26.65 0.24 1.47 0.61 2.88 1.09 4.22-14.81 10.52-23.25 23.36-21.27 35.13 3.5 20.73 37.98 30.35 76.97 21.47 1.15-0.26 2.29-0.53 3.41-0.82-0.01 2.72 0.21 5.52 0.69 8.35 2.97 17.61 14.71 29.78 26.21 27.16 5.86-1.33 10.52-6.25 13.3-13.07 4.97 3.51 10.88 4.97 16.84 3.61 9.63-2.19 16.77-11.15 18.95-22.24 9.82 0.5 20.54-0.4 31.59-2.92 39.99-9.1 69.19-35.84 65.17-59.67-2.88-17.08-22.03-28.06-47.36-29.56 2.77-5.18 3.92-10.63 3.03-15.92-2.95-17.44-26.94-26.67-53.56-20.61-4.59 1.04-8.94 2.47-13.01 4.21-3.59-10.58-14.14-16.88-25.15-14.37z" transform="matrix(.68477 0 0 .60005 121.28 415.49)" filter="url(#filter4481)" fill="#fff"/>
  </g>
  <metadata>
    <rdf:RDF>
      <cc:Work>
        <dc:format>image/svg+xml</dc:format>
        <dc:type rdf:resource="http://purl.org/dc/dcmitype/StillImage"/>
        <cc:license rdf:resource="http://creativecommons.org/licenses/publicdomain/"/>
        <dc:publisher>
          <cc:Agent rdf:about="http://openclipart.org/">
            <dc:title>Openclipart</dc:title>
          </cc:Agent>
        </dc:publisher>
        <dc:title>sky with clouds</dc:title>
        <dc:date>2007-09-16T22:34:01</dc:date>
        <dc:description>blue sky with clouds, can be used as a background</dc:description>
        <dc:source>http://openclipart.org/detail/5525/sky-with-clouds-by-shokunin</dc:source>
        <dc:creator>
          <cc:Agent>
            <dc:title>shokunin</dc:title>
          </cc:Agent>
        </dc:creator>
        <dc:subject>
          <rdf:Bag>
            <rdf:li>blue</rdf:li>
            <rdf:li>blur</rdf:li>
            <rdf:li>clip art</rdf:li>
            <rdf:li>clipart</rdf:li>
            <rdf:li>clouds</rdf:li>
            <rdf:li>day</rdf:li>
            <rdf:li>gradient</rdf:li>
            <rdf:li>image</rdf:li>
            <rdf:li>media</rdf:li>
            <rdf:li>public domain</rdf:li>
            <rdf:li>sky</rdf:li>
            <rdf:li>summer</rdf:li>
            <rdf:li>svg</rdf:li>
            <rdf:li>transparency</rdf:li>
          </rdf:Bag>
        </dc:subject>
      </cc:Work>
      <cc:License rdf:about="http://creativecommons.org/licenses/publicdomain/">
        <cc:permits rdf:resource="http://creativecommons.org/ns#Reproduction"/>
        <cc:permits rdf:resource="http://creativecommons.org/ns#Distribution"/>
        <cc:permits rdf:resource="http://creativecommons.org/ns#DerivativeWorks"/>
      </cc:License>
    </rdf:RDF>
  </metadata>
</svg>
